<?xml version="1.0" encoding="UTF-8"?><svg id="Layer_1" xmlns="http://www.w3.org/2000/svg" viewBox="0 0 111.38 26.25"><defs><style>.cls-1{fill:#fff;}.cls-2{fill:#6c50df;}.cls-3{fill:#7e5af9;}.cls-4{fill:#1d1d1b;}.cls-5{fill:#835cfb;}</style></defs><rect class="cls-4" x="54.48" y="2.4" width="56.17" height="20.3"/><path class="cls-5" d="M82.89,0c8.19,0,16.37,0,24.56,0,3.16,0,3.92,.78,3.92,3.96,0,6.23,.01,12.46,0,18.69,0,2.71-.89,3.59-3.64,3.59-16.74,0-33.47,0-50.21,0-2.72,0-3.59-.89-3.6-3.63-.01-6.37-.01-12.75,0-19.12,0-2.58,.91-3.48,3.53-3.48,8.48-.01,16.95,0,25.43,0Zm-23.99,12.99c.31-1.71,.56-3.12,.82-4.53,.17-.89,.73-2.03-.58-2.34-1.5-.35-1.68,.91-1.88,2.01-.62,3.3-1.34,6.59-1.87,9.91-.17,1.11-1.47,2.87,.37,3.32,2.01,.5,1.89-1.67,1.98-2.83,.17-2.34,1.21-3.45,3.56-3.46,1.36,0,3.01-1.1,3.97-.27,.97,.84-.14,2.5-.11,3.82,.02,.85-.3,1.87,.97,1.99,1.21,.11,1.62-.78,1.69-1.79,.27-3.72,1.05-7.36,2.01-10.95,.19-.72,.23-1.27-.48-1.65-.78-.41-1.22,.17-1.63,.66-.87,1.04-1.01,2.34-1.28,3.6-.12,.56,.03,1.4-.86,1.54-2.12,.33-4.25,.62-6.7,.97Zm44.79,4.97c1.8-.81,3.48-1.53,5.14-2.3,1.12-.53,1.94-1.36,1.62-2.7-.29-1.24-1.4-1.56-2.49-1.73-3.45-.55-6.56,1.85-7.05,5.39-.33,2.37,.69,3.91,3.05,4.37,1.58,.31,3.17,.16,4.64-.58,.86-.43,1.89-1.03,1.35-2.07-.43-.85-1.39-.22-2.12,.05-1.35,.5-2.71,.91-4.15-.43Zm-22.8-.64c-.07,3.13,1.01,4.1,4.19,3.73,.62-.07,1.16-.3,1.87-.08,1.33,.41,1.99-.37,2.19-1.65,.31-1.98,.67-3.95,1.03-5.92,.15-.82,.7-1.8-.54-2.15-1.34-.38-1.79,.66-2.02,1.68-.31,1.4-.59,2.81-.74,4.23-.17,1.63-1.38,1.35-2.4,1.38-1.33,.03-.95-.97-.95-1.69-.01-1.31,.38-2.54,.76-3.77,.22-.71,.36-1.51-.56-1.82-.9-.3-1.55,.18-1.86,1.03-.6,1.62-.95,3.3-.97,5.04Zm-10.93-.09c-.01,2.3,1.45,3.82,3.72,3.85,3.02,.05,5.62-2.81,5.61-6.18,0-2.4-1.25-3.74-3.48-3.73-3.04,.02-5.84,2.91-5.86,6.05Zm24.43-3.31c1.47-.36,2.42-.95,3.35-.15,.59,.51,1.17,.68,1.7,.14,.44-.45,.69-1.12,.5-1.78-.21-.73-.82-.92-1.52-.95-1.53-.07-3.06-.03-4.47,.56-1.04,.43-1.75,1.23-1.81,2.45-.05,1.1,.61,1.7,1.48,2.15,.7,.36,1.43,.69,2.11,1.07,.29,.16,.69,.34,.58,.78-.11,.43-.55,.41-.88,.49-1.03,.23-1.99-.21-2.97-.38-.69-.12-1.33-.01-1.56,.75-.23,.75,.21,1.19,.83,1.54,1.51,.85,4.72,.6,6.2-.52,1.7-1.28,1.68-2.99-.11-4.17-.94-.62-1.96-1.14-3.45-1.99Z"/><path class="cls-1" d="M38.72,12.08c.65-.28,1.07-.5,1.51-.65,2.91-.99,4.35,.09,4.13,3.06-.12,1.64-.24,3.28-.3,4.92-.03,1.02-.41,1.64-1.51,1.67-1.14,.03-1.24-.77-1.27-1.59-.05-1.51,.02-3,.4-4.48,.1-.39,.28-.91-.19-1.16-.41-.22-.84,.01-1.21,.27-1.21,.85-2.24,1.81-2.43,3.38-.06,.49-.18,.98-.31,1.47-.29,1.14-.59,2.46-2.18,2.04-1.57-.42-.61-1.65-.49-2.52,.52-3.54,1.15-7.06,1.67-10.59,.15-1.03,.42-1.89,1.63-1.86,1.38,.04,1.34,1.11,1.23,2.04-.15,1.26-.43,2.5-.7,3.99Z"/><path class="cls-1" d="M6.87,6.89c1.67,0,3.34,.01,5,0,.77,0,1.54,.05,1.56,1.03,.02,.92-.56,1.42-1.47,1.54-.21,.03-.43,0-.65,.01q-3.84,.14-4.26,3.89c-.2,1.78-.36,3.56-.61,5.34-.15,1.06-.64,2.06-1.91,1.91-1.45-.17-.93-1.23-.82-2.16,.32-2.56,.5-5.13,.81-7.69,.13-1.05-.26-1.24-1.2-1.11-.56,.07-1.15-.05-1.72-.11-.81-.09-1.73-.15-1.6-1.28,.12-1.01,.83-1.41,1.86-1.39,1.67,.03,3.33,0,5,.01Z"/><path class="cls-1" d="M15.33,18.02c1.83,1.14,3.23,.75,4.65,.14,.62-.27,1.46-.75,1.85,.24,.3,.76-.26,1.34-.89,1.78-1.65,1.14-5.2,1.26-6.86,.24-1.54-.95-1.72-2.39-1.46-3.96,.39-2.44,2.5-4.78,4.61-5.21,2.36-.48,4.68,.2,4.96,1.57,.49,2.46-1.59,2.88-3.19,3.63-1.1,.51-2.22,.96-3.68,1.58Zm4.35-4.4c-2.19-.45-3.23,.2-4.09,1.71,1.43-.27,2.55-.73,4.09-1.71Z"/><path class="cls-1" d="M28.02,21.09c-3.56,0-5.2-2.52-3.74-5.66,1.65-3.55,4.81-5.13,7.59-3.78,.79,.39,1.7,.83,1.19,1.91-.46,.98-1.26,.88-2.2,.48-1.94-.82-4.52,1.07-4.43,3.13,.05,1.01,.7,1.34,1.57,1.42,.88,.08,1.71-.13,2.55-.41,.59-.2,1.37-.37,1.7,.42,.36,.87-.29,1.31-.98,1.63-1.05,.48-2.11,.96-3.25,.86Z"/><path class="cls-2" d="M103.97,15.26c1.17-1.86,1.57-2.04,3.44-1.56q-1.29,1.07-3.44,1.56Z"/><path class="cls-3" d="M76.7,15.11c-.03,2.22-1.12,3.51-2.59,3.45-1.13-.04-1.48-.71-1.47-1.7,.02-1.56,1.39-3.12,2.71-3.13,1.26-.01,1.34,.82,1.35,1.38Z"/></svg>